<?xml version="1.0" standalone="no"?>
<!DOCTYPE svg PUBLIC "-//W3C//DTD SVG 20010904//EN"
 "http://www.w3.org/TR/2001/REC-SVG-20010904/DTD/svg10.dtd">
<svg version="1.0" xmlns="http://www.w3.org/2000/svg"
 width="512.000000pt" height="512.000000pt" viewBox="0 0 512.000000 512.000000"
 preserveAspectRatio="xMidYMid meet">
<metadata>
Created by potrace 1.14, written by Peter Selinger 2001-2017
</metadata>
<g transform="translate(0.000000,512.000000) scale(0.100000,-0.100000)"
fill="#000000" stroke="none">
<path d="M3982 4536 c-20 -5 -49 -30 -79 -65 -26 -31 -50 -58 -53 -61 -3 -3
-28 -32 -55 -65 -74 -89 -97 -115 -133 -156 l-34 -38 -56 37 c-88 58 -92 60
-182 103 -91 44 -258 103 -337 119 -135 28 -216 41 -293 47 -152 13 -428 6
-514 -12 -11 -2 -39 -6 -61 -9 -57 -8 -240 -53 -310 -78 -70 -24 -218 -94
-289 -136 -119 -70 -243 -176 -371 -316 -22 -23 -125 -166 -125 -173 0 -3 -6
-14 -14 -22 -23 -25 -122 -229 -151 -311 -57 -159 -104 -378 -122 -560 -15
-155 -8 -548 12 -651 3 -13 7 -41 11 -64 3 -22 14 -78 24 -125 60 -266 140
-464 264 -648 31 -46 56 -85 56 -88 0 -2 -57 -70 -126 -151 -69 -82 -136 -159
-148 -173 -11 -14 -43 -52 -71 -85 -27 -33 -57 -67 -66 -75 -49 -47 -65 -97
-44 -147 24 -57 59 -65 266 -61 207 4 174 -13 322 163 56 66 111 131 123 145
12 14 31 36 42 49 l19 25 71 -47 c134 -88 325 -169 502 -211 178 -43 259 -51
495 -51 211 0 288 7 430 39 91 20 124 29 205 56 81 26 276 113 290 129 3 3 21
15 40 25 103 57 289 221 387 342 173 213 328 569 377 869 95 572 13 1155 -220
1559 -25 45 -64 104 -85 132 l-38 52 37 43 c20 24 39 46 42 49 3 3 28 32 55
65 28 33 52 62 55 65 3 3 27 32 55 65 27 33 59 71 71 85 122 139 146 172 151
210 6 44 -12 81 -49 101 -28 15 -327 19 -376 5z m-1207 -569 c11 -3 37 -8 58
-12 108 -15 261 -72 368 -135 100 -59 99 -55 22 -146 -37 -43 -75 -88 -84 -99
-37 -45 -145 -171 -154 -181 -5 -6 -29 -33 -52 -60 -23 -27 -51 -60 -63 -74
-12 -14 -38 -45 -58 -69 -57 -69 -163 -194 -183 -216 -31 -35 -62 -72 -129
-151 -130 -155 -253 -300 -279 -329 -14 -16 -51 -60 -83 -97 -31 -37 -62 -74
-70 -82 -7 -7 -22 -24 -32 -37 -21 -27 -116 -138 -131 -155 -5 -6 -41 -49 -80
-94 -38 -46 -99 -118 -135 -160 -36 -42 -85 -99 -109 -128 l-44 -51 -30 57
c-69 131 -129 330 -151 507 -24 186 -24 471 -1 625 2 14 7 45 10 70 17 120 65
280 121 395 33 69 74 145 84 155 3 3 17 23 33 46 35 52 157 172 226 223 101
75 292 160 397 177 22 3 41 7 45 9 3 2 39 7 80 11 40 3 75 8 77 9 6 6 327 -2
347 -8z m889 -722 c39 -99 82 -262 90 -340 36 -340 25 -607 -33 -867 -33 -145
-110 -322 -195 -448 -61 -90 -198 -232 -266 -275 -214 -135 -413 -189 -700
-189 -222 0 -373 30 -538 106 -69 32 -192 108 -192 119 0 3 8 15 18 26 9 11
35 42 57 69 22 26 58 69 80 94 22 25 60 70 85 100 25 29 57 67 71 84 15 17 84
99 154 181 70 83 146 173 170 200 48 57 368 435 405 479 14 17 41 48 60 70 20
23 58 68 85 101 27 33 52 62 55 65 3 3 39 45 80 95 41 49 82 96 90 105 8 9 35
40 60 70 25 29 76 90 113 134 38 45 85 101 105 125 68 80 63 78 88 30 13 -24
39 -84 58 -134z"/>
</g>
</svg>
